<svg id="eg0VBqS74el1" xmlns="http://www.w3.org/2000/svg" xmlns:xlink="http://www.w3.org/1999/xlink" viewBox="0 0 300 300" shape-rendering="geometricPrecision" text-rendering="geometricPrecision" project-id="b5f17a2e9317444b9e56a2c52d072216" export-id="130c183c59734689a08d9c9263b0c21d" cached="false"><g transform="matrix(1.2 0 0 1.2-30.000008-29.999994)"><path d="M48.75,271.36365v-164.31825h202.5v164.31825h-79.74859v-67.20124h-43.00281v67.20124h-79.7486Zm70.85228-82.15912v-48.74998h-39.20455v48.74998h39.20455Zm100,0v-48.74998h-39.20455v48.74998h39.20455Z" stroke-width="0"/><polygon points="50,23.15 19,76.85 81,76.85 50,23.15" transform="matrix(3.93145 0 0 1.647536-46.5725-9.504111)"/><line x1="0" y1="24.374989" x2="0" y2="-24.374989" transform="translate(100 164.829539)" fill="none" stroke="#000" stroke-width="3"/><line x1="0" y1="24.374989" x2="0" y2="-24.374989" transform="translate(200 164.829539)" fill="none" stroke="#000" stroke-width="3"/><line x1="-19.602275" y1="0" x2="19.602275" y2="0" transform="translate(100 164.829539)" fill="none" stroke="#000" stroke-width="3"/><line x1="-19.602275" y1="0" x2="19.602275" y2="0" transform="translate(200 164.829539)" fill="none" stroke="#000" stroke-width="3"/><rect width="30" height="30" rx="0" ry="0" transform="matrix(.164483 0 0 0.356769 162.070278 232.4115)" stroke-width="0"/><rect width="30" height="30" rx="0" ry="0" transform="matrix(.618764 0 0 1.88351 81.43708 44.620039)" stroke-width="0"/></g></svg>
