<?xml version="1.0" encoding="UTF-8"?>
<svg version="1.1" xmlns="http://www.w3.org/2000/svg" width="500" height="500">
<path d="M0 0 C16.5 0 33 0 50 0 C50 74.25 50 148.5 50 225 C124.25 225 198.5 225 275 225 C275 241.5 275 258 275 275 C200.75 275 126.5 275 50 275 C50 349.25 50 423.5 50 500 C33.5 500 17 500 0 500 C0 425.75 0 351.5 0 275 C-74.25 275 -148.5 275 -225 275 C-225 258.5 -225 242 -225 225 C-150.75 225 -76.5 225 0 225 C0 150.75 0 76.5 0 0 Z " fill="#000000" transform="translate(225,0)"/>
</svg>
